<svg xmlns="http://www.w3.org/2000/svg" viewBox="0 10 460 345"><style>.st0{fill:#D9D9D9;} .st1{fill:#FFFFFF;}</style><path class="st0" d="M0 10h460v345H0z"/><path class="st1" d="M288 167c-1.2-1.2-4.8-4-8.8-6-4-2-21.5-19.5-21.5-19.5-2.6-5-4.2-7-9-7-2.5.2-4 1.4-4.8 2.3l-8 2.5 8 2.6v4c0 3 2 9 8 13s15 2 18 2 4 1 6 3l6 4v-1l3 1-1-2.3h2zm-39.4-27c-.7 0-1.3-.6-1.3-1.3s.6-1.4 1.3-1.4 1.3.6 1.3 1.3c0 .7-1 1.2-2 1.2zm17.4 24c-2.6 10.2-9.5 18-15.2 22.7-2.2-2.6-4.8-4.7-7.5-6.6 7-13-2.4-25-2.4-25-1 10-7 15-11 19-6-3-13-8-18-12v-1c2-5-2-12-2-12l-10 16-.5 1v-11c-14-6-41 2-41 2-3 8.6-5 17.8-5 27 0 12 3 23.6 8 33.7 0 0 23-6.7 25-7-3.7-3.6-6-8.4-6.3-13.7-.4-8 4-15 10.3-19-3 4-5 9-5 14.6 1 8 6 14.5 13 17.6 9.5 1.8 17.8 7 24.4 10 7.4 4 19.4.7 24-1l-4.7-2c-.5-.3-1-1.2-.5-2 .3-1 1.2-1 2-.6l9.6 4.7v.3c1-.8 4-3 3.6-13.4 20-20.8 8-40.6 8-40.6zm-41.5 31c-1.4.4-3-.3-3.5-1.8s.3-3 1.7-3.6c1.5-.5 3 .2 3.6 1.7.4 1.5-.4 3-1.8 3.6zm27.4 15c-1 0-1 .2-1 .3h-1s-1-1-2-1-2-.5-2-1.3c-1-1 0-2.4 1-2.8 0-.3 1 0 2 .4 0-.2 2 1.3 1 4.3zm-22-102.7c-29 0-54 16.2-67 40l19-3.3c11-14.2 28-23.2 48-23.2 34 0 61 27.7 61 61.7s-27 61.7-61 61.7c-21 0-39-10.3-51-26l-13 4.3c13.2 21 36.6 35 63.2 35 41.3 0 75-33.6 75-75s-33.7-75-75-75z"/></svg>