<svg xmlns="http://www.w3.org/2000/svg" width="46.671" height="46.704" viewBox="0 0 46.671 46.704"><title>magnifying-glass-icon</title><polygon points="20.405 26.35 18.552 24.497 12.523 30.522 14.377 32.377 16.231 34.23 22.257 28.201 20.405 26.35" style="fill:#c4c3c5"/><rect x="14.039" y="28.978" width="8.567" height="2.633" transform="translate(-16.055 21.829) rotate(-45)" style="fill:#b5b4b7"/><rect x="12.176" y="27.114" width="8.567" height="2.635" transform="translate(-15.28 19.954) rotate(-44.979)" style="fill:#c4c3c5"/><path d="M20.184,30.3a14.726,14.726,0,0,1-3.724-3.723l1.13-1.131,3.724,3.723Z" style="fill:#414042;opacity:0.4"/><path d="M16.562,30.193l-2.767-2.769L1.2,40.025A3.913,3.913,0,1,0,6.73,45.557l12.6-12.6Z" style="fill:#ff8575"/><path d="M13.815,27.375L1.153,40.039a3.931,3.931,0,0,0,0,5.563L16.6,30.158Z" style="fill:#ff978a"/><path d="M41.886,4.866a16.357,16.357,0,1,0,0,23.134A16.371,16.371,0,0,0,41.886,4.866Z" style="fill:#0094d5"/><path d="M18.7,4.808a16.459,16.459,0,0,0,0,23.251L41.945,4.808A16.453,16.453,0,0,0,18.7,4.808Z" style="fill:#199fd9"/><circle cx="30.321" cy="16.434" r="12.032" transform="translate(-2.739 26.254) rotate(-45.001)" style="fill:#99d4ee"/><path d="M21.77,7.883a12.1,12.1,0,0,0,0,17.1l17.1-17.1A12.092,12.092,0,0,0,21.77,7.883Z" style="fill:#b2dff2"/><circle cx="27.542" cy="10.474" r="2.386" transform="translate(0.659 22.539) rotate(-44.992)" style="fill:#fff"/><circle cx="31.949" cy="9.209" r="1.019" transform="translate(2.835 25.269) rotate(-44.962)" style="fill:#fff"/></svg>