<svg xmlns="http://www.w3.org/2000/svg" width="20" height="20" viewBox="0 0 20 20"><title>deal flow icons</title><path d="M16.982,17.473H16.545c-0.207-5.137-2.417-6.163-3.767-6.783-0.8-.369-0.835-0.442-0.835-0.691a0.9,0.9,0,0,1,0-.1c0.023-.212.159-0.323,0.831-0.668,1.369-.7,3.4-1.751,3.6-6.707h0.607a0.787,0.787,0,0,0,0-1.574H3.018a0.787,0.787,0,0,0,0,1.574H3.625c0.2,4.956,2.227,6.006,3.6,6.707C7.99,9.627,8.057,9.717,8.057,10c0,0.249-.031.322-0.835,0.691-1.35.619-3.56,1.646-3.767,6.783H3.018a0.787,0.787,0,0,0,0,1.574H16.982A0.787,0.787,0,0,0,16.982,17.473ZM9.6,10A2.359,2.359,0,0,0,7.923,7.862L7.7,7.746,7.61,7.7,7.466,7.62l-0.1-.062C7.318,7.532,7.275,7.507,7.232,7.48S7.159,7.432,7.123,7.407,7.04,7.351,7,7.321,6.926,7.265,6.889,7.237s-0.081-.064-0.121-0.1S6.7,7.074,6.66,7.041,6.581,6.967,6.543,6.927s-0.07-.075-0.1-0.113S6.363,6.728,6.326,6.682,6.259,6.6,6.226,6.551,6.154,6.45,6.119,6.4s-0.063-.1-0.093-0.15-0.067-.117-0.1-0.179S5.868,5.956,5.84,5.9,5.778,5.761,5.749,5.69,5.7,5.562,5.671,5.495,5.616,5.339,5.589,5.258,5.542,5.113,5.521,5.036s-0.047-.179-0.07-0.272S5.41,4.6,5.392,4.517,5.353,4.312,5.335,4.206,5.3,4.026,5.288,3.93C5.272,3.818,5.259,3.7,5.245,3.577c-0.012-.1-0.025-0.2-0.034-0.3C5.2,3.141,5.192,3,5.183,2.86c-0.007-.107-0.015-0.209-0.02-0.322V2.527h9.675V2.539c0,0.112-.013.214-0.02,0.322C14.808,3,14.8,3.141,14.789,3.272c-0.01.106-.023,0.2-0.034,0.3-0.014.119-.027,0.241-0.043,0.353-0.014.1-.031,0.185-0.047,0.276s-0.036.212-.057,0.311-0.038.166-.058,0.248-0.045.185-.07,0.272-0.045.149-.069,0.221-0.053.161-.081,0.237-0.051.132-.078,0.2-0.06.141-.091,0.207-0.057.116-.086,0.172-0.066.121-.1,0.179-0.062.1-.093,0.15-0.071.1-.107,0.154-0.066.089-.1,0.131-0.075.09-.113,0.132-0.069.077-.1,0.113S13.379,7,13.34,7.041s-0.071.067-.108,0.1-0.081.066-.121,0.1S13.038,7.295,13,7.321s-0.083.058-.124,0.086-0.073.05-.109,0.073-0.086.052-.129,0.078l-0.1.062L12.39,7.7,12.3,7.746l-0.225.116A2.359,2.359,0,0,0,10.4,10a2.275,2.275,0,0,0,1.733,2.092L12.371,12.2l0.083,0.041c0.052,0.025.1,0.051,0.158,0.078l0.1,0.055c0.047,0.025.095,0.051,0.142,0.078s0.071,0.044.107,0.066,0.091,0.056.136,0.086,0.073,0.052.109,0.079,0.088,0.064.131,0.1,0.072,0.061.108,0.092,0.085,0.075.126,0.115,0.07,0.071.1,0.108,0.081,0.088.121,0.135,0.067,0.083.1,0.126,0.077,0.1.114,0.157,0.064,0.1.095,0.147,0.072,0.12.107,0.184,0.059,0.11.087,0.169,0.066,0.14.1,0.214,0.053,0.126.079,0.192,0.059,0.163.087,0.248,0.047,0.142.069,0.218c0.027,0.091.051,0.188,0.075,0.286,0.02,0.08.04,0.159,0.058,0.244,0.023,0.105.042,0.218,0.062,0.331,0.016,0.089.032,0.175,0.046,0.268,0.018,0.122.033,0.253,0.048,0.384,0.011,0.1.024,0.19,0.033,0.291,0.013,0.143.022,0.3,0.031,0.45,0.006,0.1.014,0.2,0.019,0.306v0.029H4.991V17.444c0-.107.013-0.2,0.019-0.306,0.009-.153.018-0.307,0.031-0.45,0.009-.1.022-0.193,0.033-0.289,0.015-.131.03-0.264,0.048-0.387,0.014-.092.03-0.176,0.045-0.263,0.02-.114.04-0.229,0.063-0.336,0.018-.083.038-0.161,0.057-0.239,0.025-.1.049-0.2,0.077-0.291,0.022-.074.045-0.144,0.068-0.214,0.029-.086.058-0.171,0.088-0.251,0.025-.065.051-0.127,0.077-0.188s0.065-.149.1-0.219,0.056-.111.085-0.164,0.072-.129.109-0.189,0.06-.1.091-0.142,0.078-.11.118-0.162,0.064-.083.1-0.122,0.083-.094.125-0.139,0.067-.071.1-0.1,0.087-.081.131-0.119,0.068-.06.1-0.088,0.092-.07.138-0.1,0.068-.05.1-0.074,0.1-.062.144-0.091,0.066-.042.1-0.061c0.049-.029.1-0.055,0.149-0.081l0.1-.052c0.056-.029.112-0.056,0.168-0.083L7.628,12.2l0.236-.109A2.275,2.275,0,0,0,9.6,10Z" fill="#d3d2d4"/><path d="M6.4,16.267a0.244,0.244,0,0,0,.242.283h6.707a0.244,0.244,0,0,0,.242-0.283c-0.3-1.643-1.279-3.334-3.6-3.334S6.7,14.624,6.4,16.267Z" fill="#d3d2d4"/></svg>