<svg xmlns="http://www.w3.org/2000/svg" width="20" height="20" viewBox="0 0 20 20"><title>market talk icons</title><path d="M12.08,19.67a0.75,0.75,0,0,1-.75-0.75V8.5a0.75,0.75,0,0,1,.47-0.7L19,4.93a0.75,0.75,0,0,1,1,.7v10a0.75,0.75,0,0,1-.44.68L12.4,19.61A0.75,0.75,0,0,1,12.08,19.67ZM12.83,9v8.75l5.66-2.6V6.73Zm6.41,6.62h0Z" fill="#0f94d2"/><path d="M12.08,19.67a0.75,0.75,0,0,1-.31-0.07L4.61,16.31a0.75,0.75,0,0,1-.44-0.68v-10a0.75,0.75,0,0,1,1-.7l7.16,2.88a0.75,0.75,0,0,1,.47.7V18.92A0.75,0.75,0,0,1,12.08,19.67ZM5.67,15.15l5.66,2.6V9L5.67,6.73v8.42Z" fill="#0f94d2"/><path d="M12.08,9.25A0.74,0.74,0,0,1,11.8,9.2L4.64,6.32a0.75,0.75,0,0,1,0-1.39L11.8,2a0.75,0.75,0,0,1,.56,0l7.16,2.88a0.75,0.75,0,0,1,0,1.39L12.36,9.2A0.74,0.74,0,0,1,12.08,9.25ZM6.93,5.62l5.15,2.07,5.15-2.07L12.08,3.55Z" fill="#0f94d2"/><path d="M2.64,5.46a0.62,0.62,0,0,1-.24,0l-2-.83A0.62,0.62,0,1,1,.87,3.43l2,0.83A0.62,0.62,0,0,1,2.64,5.46Z" fill="#0f94d2"/><path d="M5.36,3.87a0.62,0.62,0,0,1-.24,0L3.11,3a0.62,0.62,0,1,1,.47-1.16l2,0.83A0.62,0.62,0,0,1,5.36,3.87Z" fill="#0f94d2"/><path d="M7.8,2.4a0.62,0.62,0,0,1-.24,0l-2-.83A0.62,0.62,0,1,1,6,.37L8,1.2A0.62,0.62,0,0,1,7.8,2.4Z" fill="#0f94d2"/><path d="M2.64,8.47a0.62,0.62,0,0,1-.24,0l-2-.83A0.62,0.62,0,1,1,.87,6.44l2,0.83A0.62,0.62,0,0,1,2.64,8.47Z" fill="#0f94d2"/><path d="M2.64,11.41a0.62,0.62,0,0,1-.24,0l-2-.83A0.62,0.62,0,1,1,.87,9.38l2,0.83A0.62,0.62,0,0,1,2.64,11.41Z" fill="#0f94d2"/><path d="M15.67,7.81a0.74,0.74,0,0,1-.28-0.05L8.22,4.88a0.75,0.75,0,1,1,.56-1.39l7.16,2.88A0.75,0.75,0,0,1,15.67,7.81Z" fill="#0f94d2"/><path d="M15.82,14.81a0.63,0.63,0,0,1-.4-0.15L13.91,13.4a0.62,0.62,0,0,1,.8-1l0.76,0.64,0.94-3.43a0.63,0.63,0,1,1,1.21.33l-1.2,4.36a0.63,0.63,0,0,1-.42.43Z" fill="#0f94d2"/></svg>