<svg xmlns="http://www.w3.org/2000/svg" width="20" height="20" viewBox="0 0 20 20"><title>order received</title><path d="M19.23,19.92H0.77A0.76,0.76,0,0,1,0,19.16H0V9.23a0.76,0.76,0,1,1,1.51,0v9.18h17V9.23a0.76,0.76,0,0,1,1.51,0v9.93a0.76,0.76,0,0,1-.76.76h0Z" fill="#1ac9b4"/><path d="M10,14.79A0.76,0.76,0,0,1,9.24,14s0,0,0,0V0.84a0.76,0.76,0,0,1,1.51,0V14a0.76,0.76,0,0,1-.72.8h0Z" fill="#1ac9b4"/><path d="M10,15.61h0a0.76,0.76,0,0,1-.53-0.22l-4-4a0.76,0.76,0,0,1,1-1.17l0.1,0.1L10,13.8l3.49-3.49a0.76,0.76,0,1,1,1.17,1l-0.1.1-4,4A0.76,0.76,0,0,1,10,15.61Z" fill="#1ac9b4"/></svg>