<svg xmlns="http://www.w3.org/2000/svg" width="30" height="18" viewBox="0 0 30 18"><title>market talk icons</title><ellipse cx="6.98" cy="15.07" rx="2.95" ry="2.93" fill="#969696"/><ellipse cx="22.92" cy="15.07" rx="2.95" ry="2.93" fill="#969696"/><rect x="19.59" y="6.76" width="9.81" height="7.38" rx="0.5" ry="0.5" transform="translate(49 20.91) rotate(-180)" fill="#b7b7b7"/><rect x="19.59" y="2.28" width="6.45" height="8.62" rx="0.5" ry="0.5" transform="translate(45.64 13.17) rotate(-180)" fill="#b7b7b7"/><path d="M1.49,0H19.05a0.86,0.86,0,0,1,.87.86V13.29a0.86,0.86,0,0,1-.87.86H1.49a0.86,0.86,0,0,1-.87-0.86V0.86A0.86,0.86,0,0,1,1.49,0Z" fill="#a7a7a7"/><path d="M1.49,0H19.05a0.86,0.86,0,0,1,.87.86V13.29a0.86,0.86,0,0,1-.87.86H1.49a0.86,0.86,0,0,1-.87-0.86V0.86A0.86,0.86,0,0,1,1.49,0Z" fill="#ccc"/><rect y="13.22" width="30" height="1.71" rx="0.58" ry="0.58" transform="translate(30 28.15) rotate(-180)" fill="#e0e0e0"/></svg>