<svg xmlns="http://www.w3.org/2000/svg" width="100" height="70.18" viewBox="0 0 100 70.18"><title>empty-archived</title><path d="M99.69,33.15a2.3,2.3,0,0,0-.32-.62L77.72,2.14a5,5,0,0,0-4-2H26.26a5,5,0,0,0-4,2.07L.85,32.22a2.3,2.3,0,0,0-.18.25l0,.06L2.57,33.9h0L4.5,35.27a1.28,1.28,0,0,1-1,.46H23l.41,1c2.45,5.77,5,11,8.89,11H67.73c3.92,0,6.44-5.18,8.9-11l.41-1H95.91a2.38,2.38,0,0,0,3.79-2.58Z" fill="#e2e1e2"/><path d="M99.48,32.7a3.48,3.48,0,0,0-3-1.71H75.65c-1.76,0-2.27,1.21-3.4,3.87-2.09,4.92-3.64,7.63-4.6,8.06l-35.23,0c-1-.36-2.53-3.08-4.65-8.08C26.63,32.2,26.11,31,24.35,31H3.51A3.47,3.47,0,0,0,.57,32.6a3.58,3.58,0,0,0-.57,2V66.51a3.55,3.55,0,0,0,3.51,3.58h93A3.55,3.55,0,0,0,100,66.51V34.56A3.55,3.55,0,0,0,99.48,32.7Z" fill="#c5c3c6"/></svg>