<svg xmlns="http://www.w3.org/2000/svg" width="84" height="100" viewBox="0 0 84.2 100"><style type="text/css">  
	.st0{fill:#E2E1E2;}
	.st1{fill:#C5C3C6;}
</style><path class="st0" d="M47.6 34.3h-2.1v-0.8c-0.3 0-0.5 0-0.8 0l0-1 0.1-1 0.1 0c0.6 0 1.2 0.1 1.8 0.1 0.5 0 0.9 0.5 0.9 1V34.3z"/><rect x="45.6" y="35.9" class="st0" width="2.1" height="3.7"/><path class="st0" d="M46.6 44c-0.2 0-0.3 0-0.5-0.1 -0.4-0.2-0.6-0.5-0.6-0.9v-1.8h1.7l0.2-0.1 0.1 0.1h0.1v0.2l1 1.3 -1.4 1.1C47.1 43.9 46.8 44 46.6 44z"/><path class="st0" d="M49.8 41.8l-1.3-1.6 2.7-2.1 1.3 1.6L49.8 41.8zM53.7 38.8l-1.3-1.6 2.7-2.1 1.3 1.6L53.7 38.8zM57.5 35.8l-1.3-1.6 2.7-2.1 1.3 1.6L57.5 35.8zM61.4 32.9l-1.3-1.6 2.7-2.1 1.3 1.6L61.4 32.9zM65.2 29.9l-1.3-1.6 2.7-2.1 1.3 1.6L65.2 29.9zM69 26.9l-1.3-1.6 2.7-2.1 1.3 1.6L69 26.9z"/><path class="st0" d="M72.9 23.9l-1.3-1.6L72 22l-0.4-0.3 1.3-1.6 1.4 1.1c0.3 0.2 0.4 0.5 0.4 0.8s-0.1 0.6-0.4 0.8L72.9 23.9z"/><path class="st0" d="M70.5 20.8l-2.7-2.1 1.3-1.6 2.7 2.1L70.5 20.8zM66.6 17.8l-2.7-2.1 1.3-1.6 2.7 2.1L66.6 17.8zM62.8 14.9l-2.7-2.1 1.3-1.6 2.7 2.1L62.8 14.9zM58.9 11.9l-2.7-2.1 1.3-1.6 2.7 2.1L58.9 11.9zM55.1 8.9l-2.7-2.1 1.3-1.6 2.7 2.1L55.1 8.9zM51.3 5.9l-2.7-2.1 1.3-1.6 2.7 2.1L51.3 5.9z"/><path class="st0" d="M47.4 3l-0.2-0.1h-1.7V1c0-0.4 0.2-0.8 0.6-0.9 0.4-0.2 0.8-0.1 1.1 0.1l1.4 1.1 -1 1.3v0.2h-0.1L47.4 3z"/><rect x="45.6" y="4.4" class="st0" width="2.1" height="3.7"/><path class="st0" d="M45.1 12.9l-0.5-2 1-0.2v-1h2.1v1.8c0 0.5-0.3 0.9-0.8 1L45.1 12.9z"/><path class="st0" d="M0.1 59.2l0-0.7C0 57.8 0 57.1 0 56.3L0 56l0-0.4 2.1 0 0 0.4 0 0.3c0 0.8 0 1.4 0.1 2.1l0 0.6L0.1 59.2zM2.1 54.1L0 54l0-0.3c0.1-0.9 0.1-1.9 0.3-3l0-0.4 2 0.3 0 0.3c-0.1 1-0.2 2-0.3 2.8L2.1 54.1zM2.7 49.2l-2-0.4c0.1-0.5 0.2-0.9 0.3-1.4 0.2-0.7 0.3-1.4 0.5-2.1l2 0.5c-0.2 0.7-0.4 1.4-0.5 2C2.8 48.4 2.7 48.8 2.7 49.2zM3.9 44.5l-2-0.6c0.4-1.2 0.8-2.3 1.3-3.4l1.9 0.8C4.6 42.3 4.2 43.3 3.9 44.5zM5.7 39.9l-1.9-0.9c0.4-0.9 0.9-1.8 1.4-2.7l0.3-0.5 1.8 1.1L7 37.4C6.5 38.2 6.1 39.1 5.7 39.9zM8.1 35.7l-1.7-1.1c0.4-0.7 0.9-1.4 1.4-2 0.2-0.3 0.5-0.6 0.7-0.9l1.6 1.3c-0.2 0.3-0.4 0.6-0.7 0.9C8.9 34.4 8.5 35 8.1 35.7zM11 31.7l-1.6-1.3c0.4-0.5 0.9-1 1.4-1.5 0.4-0.4 0.7-0.8 1.1-1.1l1.5 1.5c-0.4 0.4-0.7 0.7-1 1.1C11.8 30.8 11.4 31.2 11 31.7zM14.4 28.2L13 26.7c0.4-0.4 0.9-0.8 1.3-1.2 0.5-0.4 0.9-0.8 1.4-1.2l1.3 1.6c-0.5 0.4-0.9 0.8-1.4 1.1C15.2 27.4 14.8 27.8 14.4 28.2zM18.1 25l-1.3-1.6c0.4-0.3 0.8-0.6 1.3-0.9 0.5-0.4 1.1-0.8 1.7-1.2l1.2 1.7c-0.5 0.4-1.1 0.7-1.6 1.1C18.9 24.4 18.5 24.7 18.1 25zM22.2 22.2l-1.1-1.7c0.4-0.3 0.8-0.5 1.2-0.7 0.6-0.4 1.2-0.7 1.9-1.1l1 1.8c-0.6 0.3-1.2 0.7-1.8 1C22.9 21.7 22.6 21.9 22.2 22.2zM26.5 19.7l-1-1.8c0.4-0.2 0.7-0.4 1.1-0.6 0.7-0.3 1.4-0.7 2.1-1l0.9 1.9c-0.7 0.3-1.4 0.6-2 1C27.2 19.3 26.8 19.5 26.5 19.7zM30.9 17.6l-0.8-1.9c0.3-0.1 0.6-0.3 1-0.4 0.8-0.3 1.6-0.6 2.3-0.9l0.7 1.9c-0.8 0.3-1.5 0.6-2.3 0.9C31.6 17.3 31.2 17.4 30.9 17.6zM35.6 15.7l-0.7-1.9 0.7-0.2c0.9-0.3 1.8-0.6 2.7-0.9l0.6 2c-0.9 0.3-1.8 0.6-2.6 0.9L35.6 15.7zM40.3 14.2l-0.6-2 3.4-0.9 0.5 2L40.3 14.2z"/><path class="st0" d="M1.5 63.4C1.5 63.4 1.5 63.4 1.5 63.4c-0.5 0-0.9-0.4-1-0.9l-0.1-1c0-0.2-0.1-0.5-0.1-0.8l0.5-0.1c0-0.1 0-0.2 0-0.2l0.8 0.2 0.7-0.1c0 0.1 0 0.2 0 0.2l0.5 0.1c-0.1 0.3-0.1 0.5-0.1 0.7l-0.2 1C2.5 63.1 2 63.4 1.5 63.4z"/><path class="st0" d="M3.2 59.4l-2-0.5 0.2-0.6c0.2-0.6 0.4-1.3 0.6-2C2 56 2.1 55.7 2.2 55.4l2 0.7c-0.1 0.3-0.2 0.5-0.3 0.8 -0.2 0.7-0.4 1.3-0.5 1.9L3.2 59.4zM4.6 54.7L2.7 54l0.9 0.4 -1-0.3c0 0 0-0.1 0-0.1 0.3-0.8 0.7-1.6 1.1-2.5 0.1-0.2 0.2-0.5 0.4-0.7L6 51.6c-0.1 0.2-0.2 0.5-0.3 0.7C5.3 53.1 4.9 53.9 4.6 54.7 4.6 54.7 4.6 54.7 4.6 54.7zM6.7 50.3l-1.8-1c0.1-0.2 0.2-0.4 0.3-0.6 0.5-0.9 1.1-1.7 1.6-2.5l1.7 1.2c-0.5 0.7-1 1.5-1.5 2.4C6.9 50 6.8 50.1 6.7 50.3zM9.3 46.2L7.7 45c0.4-0.6 0.9-1.1 1.4-1.6 0.3-0.4 0.7-0.7 1-1.1l1.5 1.4c-0.3 0.3-0.7 0.7-1 1C10.2 45.2 9.8 45.7 9.3 46.2zM12.6 42.7l-1.4-1.5 0.3-0.3c0.8-0.7 1.6-1.4 2.5-2l1.2 1.7c-0.8 0.6-1.6 1.2-2.3 1.9L12.6 42.7zM16.4 39.7L15.3 38c0.7-0.5 1.5-0.9 2.2-1.4 0.3-0.2 0.6-0.3 0.9-0.5l0.9 1.8c-0.3 0.1-0.6 0.3-0.8 0.4C17.8 38.8 17.1 39.2 16.4 39.7zM20.7 37.3l-0.9-1.9c0.4-0.2 0.7-0.3 1.1-0.5 0.7-0.3 1.5-0.6 2.2-0.9l0.7 1.9c-0.7 0.3-1.4 0.5-2.1 0.8C21.4 37 21 37.2 20.7 37.3zM25.2 35.5l-0.6-2c1.2-0.4 2.3-0.7 3.5-0.9l0.4 2C27.5 34.9 26.4 35.2 25.2 35.5zM30 34.4l-0.4-2c0.8-0.2 1.5-0.3 2.3-0.4 0.4-0.1 0.8-0.1 1.2-0.2l0.3 2c-0.4 0-0.8 0.1-1.2 0.2C31.5 34.1 30.7 34.2 30 34.4zM34.9 33.6l-0.2-2.1c0.3 0 0.7-0.1 1-0.1 0.8-0.1 1.7-0.1 2.5-0.2l0.1 2.1c-0.8 0-1.6 0.1-2.4 0.2C35.5 33.6 35.2 33.6 34.9 33.6zM43.2 33.4l-0.2 0c-1 0-2.1 0-3.2 0l0-2.1c1.1 0 2.3 0 3.4 0l0.2 0L43.2 33.4z"/><path class="st1" d="M83.4 39.6l-0.8-0.2 -0.7 0.1c0-0.1 0-0.2 0-0.2l-0.5-0.1c0.1-0.3 0.1-0.5 0.1-0.7l0.2-1c0.1-0.5 0.5-0.8 1-0.8 0 0 0 0 0 0 0.5 0 0.9 0.4 1 0.9l0.1 1c0 0.2 0.1 0.5 0.1 0.8l-0.5 0.1C83.4 39.4 83.4 39.5 83.4 39.6z"/><path class="st1" d="M43.2 68.7c-0.7 0-1.4 0-2.1 0l-0.2 0 0.1-2.1 0.2 0c1 0 2.1 0 3.2 0l0 2.1C44 68.7 43.6 68.7 43.2 68.7zM46 68.7l-0.1-2.1c0.8 0 1.6-0.1 2.4-0.2 0.4 0 0.7-0.1 1-0.1l0.2 2.1c-0.3 0-0.7 0.1-1 0.1C47.7 68.6 46.8 68.6 46 68.7zM51.1 68.3l-0.3-2c0.4 0 0.8-0.1 1.2-0.2 0.7-0.1 1.5-0.2 2.2-0.4l0.4 2c-0.8 0.2-1.5 0.3-2.3 0.4C51.9 68.1 51.5 68.2 51.1 68.3zM56.1 67.4l-0.4-2c1.1-0.2 2.2-0.5 3.3-0.9l0.6 2C58.4 66.8 57.3 67.1 56.1 67.4zM61.1 65.9L60.4 64c0.7-0.3 1.4-0.5 2.1-0.8 0.3-0.1 0.7-0.3 1-0.5l0.9 1.9c-0.4 0.2-0.7 0.3-1.1 0.5C62.6 65.4 61.8 65.6 61.1 65.9zM65.8 63.9l-1-1.8c0.3-0.1 0.6-0.3 0.8-0.5 0.7-0.4 1.4-0.8 2.1-1.3l1.1 1.7c-0.7 0.5-1.5 0.9-2.2 1.4C66.4 63.6 66.1 63.7 65.8 63.9zM70.2 61.1L69 59.5c0.8-0.6 1.6-1.2 2.3-1.9l0.3-0.3 1.4 1.5 -0.3 0.3C71.9 59.8 71 60.5 70.2 61.1zM74.1 57.7l-1.5-1.5c0.3-0.3 0.7-0.7 1-1 0.4-0.5 0.8-1 1.3-1.5l1.6 1.3c-0.4 0.6-0.9 1.1-1.4 1.6C74.8 57 74.5 57.4 74.1 57.7zM77.4 53.8l-1.7-1.2c0.5-0.7 1-1.5 1.5-2.4 0.1-0.2 0.2-0.4 0.3-0.5l1.8 1c-0.1 0.2-0.2 0.4-0.3 0.6C78.5 52.2 78 53 77.4 53.8zM80.1 49.3l-1.8-0.9c0.1-0.2 0.2-0.5 0.3-0.7 0.4-0.8 0.7-1.6 1-2.4 0 0 0 0 0-0.1l1.9 0.8 -0.9-0.4 1 0.2c0 0.1 0 0.1-0.1 0.2 -0.3 0.8-0.7 1.6-1.1 2.5C80.3 48.8 80.2 49.1 80.1 49.3zM82.1 44.6l-2-0.7c0.1-0.3 0.2-0.5 0.3-0.8 0.2-0.7 0.4-1.3 0.5-1.9l0.1-0.6 2 0.5 -0.2 0.6c-0.2 0.6-0.4 1.3-0.6 2C82.2 44 82.2 44.3 82.1 44.6z"/><path class="st1" d="M39.3 68.6L39.3 68.6c-0.6 0-1.2-0.1-1.8-0.1 -0.5 0-0.9-0.5-0.9-1v-1.8h2.1v0.8c0.3 0 0.5 0 0.8 0l0 1L39.3 68.6z"/><rect x="36.6" y="60.4" class="st1" width="2.1" height="3.7"/><path class="st1" d="M36.8 58.9l-0.1-0.1h-0.1v-0.2l-1-1.3 1.4-1.1c0.3-0.2 0.7-0.3 1.1-0.1 0.4 0.2 0.6 0.5 0.6 0.9v1.8H37L36.8 58.9z"/><path class="st1" d="M13.8 76.8l-1.3-1.6 2.7-2.1 1.3 1.6L13.8 76.8zM17.6 73.8l-1.3-1.6 2.7-2.1 1.3 1.6L17.6 73.8zM21.4 70.8l-1.3-1.6 2.7-2.1 1.3 1.6L21.4 70.8zM25.3 67.9L24 66.2l2.7-2.1 1.3 1.6L25.3 67.9zM29.1 64.9l-1.3-1.6 2.7-2.1 1.3 1.6L29.1 64.9zM33 61.9l-1.3-1.6 2.7-2.1 1.3 1.6L33 61.9z"/><path class="st1" d="M11.3 79.9l-1.4-1.1c-0.3-0.2-0.4-0.5-0.4-0.8s0.1-0.6 0.4-0.8l1.4-1.1 1.3 1.6L12.2 78l0.4 0.3L11.3 79.9z"/><path class="st1" d="M34.4 97.8l-2.7-2.1 1.3-1.6 2.7 2.1L34.4 97.8zM30.5 94.8l-2.7-2.1 1.3-1.6 2.7 2.1L30.5 94.8zM26.7 91.8L24 89.7l1.3-1.6 2.7 2.1L26.7 91.8zM22.9 88.8l-2.7-2.1 1.3-1.6 2.7 2.1L22.9 88.8zM19 85.9l-2.7-2.1 1.3-1.6 2.7 2.1L19 85.9zM15.2 82.9l-2.7-2.1 1.3-1.6 2.7 2.1L15.2 82.9z"/><path class="st1" d="M37.6 100c-0.2 0-0.4-0.1-0.6-0.2l-1.4-1.1 1-1.3v-0.2h0.1l0.1-0.1 0.1 0.1h1.7V99c0 0.4-0.2 0.8-0.6 0.9C37.9 100 37.8 100 37.6 100z"/><rect x="36.6" y="91.9" class="st1" width="2.1" height="3.7"/><path class="st1" d="M38.6 90.3h-2.1v-1.8c0-0.5 0.3-0.9 0.8-1l1.8-0.4 0.4 2 -0.9 0.2V90.3z"/><path class="st1" d="M41.1 88.7l-0.5-2 3.4-0.9 0.6 2L41.1 88.7zM46 87.3l-0.6-2c0.9-0.3 1.8-0.6 2.6-0.9l0.7-0.2 0.7 1.9 -0.7 0.2C47.8 86.8 46.9 87.1 46 87.3zM50.8 85.7l-0.7-1.9c0.8-0.3 1.5-0.6 2.3-0.9 0.3-0.1 0.6-0.3 1-0.4l0.8 1.9c-0.3 0.1-0.6 0.3-1 0.4C52.4 85.1 51.6 85.4 50.8 85.7zM55.5 83.7l-0.9-1.9c0.7-0.3 1.3-0.6 2-1 0.4-0.2 0.7-0.4 1.1-0.6l1 1.8c-0.4 0.2-0.7 0.4-1.1 0.6C56.9 83.1 56.2 83.4 55.5 83.7zM60.1 81.4l-1-1.8c0.6-0.3 1.2-0.7 1.8-1 0.4-0.2 0.8-0.5 1.2-0.7l1.1 1.7c-0.4 0.3-0.8 0.5-1.2 0.7C61.3 80.7 60.7 81.1 60.1 81.4zM64.4 78.8L63.3 77c0.5-0.4 1.1-0.7 1.6-1.1 0.4-0.3 0.8-0.6 1.2-0.9l1.3 1.6c-0.4 0.3-0.8 0.6-1.3 0.9C65.5 78 65 78.4 64.4 78.8zM68.6 75.7l-1.3-1.6c0.5-0.4 0.9-0.8 1.4-1.1 0.4-0.4 0.8-0.7 1.2-1.1l1.4 1.5c-0.4 0.4-0.9 0.8-1.3 1.2C69.5 74.9 69 75.3 68.6 75.7zM72.4 72.3l-1.5-1.5c0.4-0.4 0.7-0.7 1-1.1 0.4-0.5 0.9-1 1.3-1.5l1.6 1.3c-0.4 0.5-0.9 1-1.4 1.5C73.1 71.5 72.7 71.9 72.4 72.3zM75.8 68.4l-1.6-1.3c0.2-0.3 0.4-0.6 0.7-0.9 0.5-0.6 0.9-1.3 1.3-1.9l1.7 1.1c-0.4 0.7-0.9 1.4-1.4 2C76.3 67.8 76 68.1 75.8 68.4zM78.7 64.1l-1.8-1.1 0.3-0.4c0.5-0.8 1-1.7 1.4-2.6l1.9 0.9c-0.4 0.9-0.9 1.8-1.5 2.7L78.7 64.1zM81.1 59.5l-1.9-0.8c0.4-1 0.8-2.1 1.2-3.2l2 0.6C82 57.3 81.5 58.5 81.1 59.5zM82.8 54.7l-2-0.5c0.2-0.7 0.4-1.4 0.5-2 0.1-0.5 0.2-0.9 0.3-1.3l2 0.4c-0.1 0.5-0.2 0.9-0.3 1.4C83.1 53.2 83 53.9 82.8 54.7zM83.8 49.6l-2-0.3 0-0.3c0.1-1 0.2-2 0.3-2.8l0-0.2 2.1 0.1 0 0.3c-0.1 0.9-0.1 1.9-0.3 3L83.8 49.6zM84.2 44.4l-2.1 0 0-0.4 0-0.3c0-0.8 0-1.4-0.1-2.1l0-0.6 2.1-0.2 0 0.7c0 0.7 0.1 1.4 0.1 2.2l0 0.3L84.2 44.4z"/></svg>