<?xml version="1.0" encoding="utf-8"?>
<!-- Generator: Adobe Illustrator 19.2.0, SVG Export Plug-In . SVG Version: 6.00 Build 0)  -->
<svg version="1.1" id="Layer_1" xmlns="http://www.w3.org/2000/svg" xmlns:xlink="http://www.w3.org/1999/xlink" x="0px" y="0px"
	 viewBox="0 0 88.6 105.6" style="enable-background:new 0 0 88.6 105.6;" xml:space="preserve">
<style type="text/css">
	.st0{fill:#D3D2D4;}
	.st1{fill:#E2E1E2;}
	.st2{fill:#C5C3C6;}
</style>
<title>empty-deleted</title>
<path class="st0" d="M83.8,20H4.6l3,81.8c0,0,0,0,0,0c0,2.1,1.7,3.8,3.8,3.8h65.7c0,0,0,0,0,0c2.1,0,3.8-1.7,3.8-3.8L83.8,20z"/>
<path class="st1" d="M44.2,20.1v85.5h33.1l0,0c2,0,3.5-1.6,3.5-3.5l3-82H44.2z"/>
<polygon class="st2" points="83.6,28 5,28 4.6,20.1 83.8,20.1 "/>
<path class="st2" d="M0.3,13.8v4.2c0,1.7,1.3,3,3,3h82c1.7,0,3-1.3,3-3v-4.2l0,0c0-1.7-1.3-3-3-3H59.3V3.6c0-1.7-1.3-3-3-3H32.2
	c-1.7,0-3,1.3-3,3v7.3h-26C1.6,10.9,0.3,12.2,0.3,13.8z M53.3,10.9H35.2V6.6h18.2V10.9z"/>
<path class="st0" d="M44.3,10.9v10.2h41c1.7,0,3-1.3,3-3v-4.2c0-1.7-1.3-3-3-3H59.3V3.6c0-1.7-1.3-3-3-3H44.2v6h9.1v4.3H44.3z"/>
<circle class="st2" cx="53.7" cy="62.5" r="2.8"/>
<circle class="st2" cx="34.8" cy="62.5" r="2.8"/>
<path class="st2" d="M55.5,71.2c0,5.6-5,10.1-11.2,10.1S33,76.8,33,71.2H55.5z"/>
</svg>
