<svg xmlns="http://www.w3.org/2000/svg" width="110" height="89" viewBox="0 0 110 89"><title>favorites</title><g id="empty"><path d="M103.13,9a30.83,30.83,0,0,0-3.6-3.09C86.4-3.71,67.53-1.91,55,13.79,41.27-3.42,19.87-3.93,6.86,9c-10.31,10.24-8.05,31.15.5,42.18C20.31,67.8,55,89,55,89S84.87,70.79,99.53,54.77c1.13-1.21,2.17-2.45,3.1-3.64C111.21,40.11,113.44,19.19,103.13,9Z" fill="#ff8474"/><path d="M6.86,9c-10.31,10.24-8.05,31.15.5,42.18C20.3,67.78,54.93,89,55,89V13.78C41.27-3.42,19.87-3.93,6.86,9Z" fill="#ff9d90"/></g></svg>