<svg xmlns="http://www.w3.org/2000/svg" width="40.54" height="33.23" viewBox="0 0 40.54 33.23"><title>favorites-info</title><g id="empty"><path d="M20.27,33.23a1.5,1.5,0,0,1-.78-.22C19,32.71,7.37,25.61,2.84,19.81-.56,15.45-1.3,7.55,2.8,3.5A11.79,11.79,0,0,1,11.87,0,12.94,12.94,0,0,1,20.27,4C24.82-.58,31.34-1.33,36.34,2.3a12.13,12.13,0,0,1,1.4,1.2c4.1,4,3.36,11.94,0,16.3-.35.45-.74.9-1.14,1.34C31.47,26.66,21.47,32.76,21,33A1.5,1.5,0,0,1,20.27,33.23ZM11.17,3A8.85,8.85,0,0,0,4.91,5.63C2,8.51,2.69,14.73,5.21,18,8.77,22.52,17.6,28.28,20.27,30c2.45-1.55,10.07-6.51,14.08-10.87q.53-.57,1-1.14c2.52-3.23,3.22-9.44.3-12.32h0a9,9,0,0,0-1.05-.9c-4.1-3-9.62-2-13.13,2.41a1.5,1.5,0,0,1-1.17.56h0a1.5,1.5,0,0,1-1.17-.56A10.33,10.33,0,0,0,11.69,3Z" fill="#666"/></g></svg>