<svg xmlns="http://www.w3.org/2000/svg" width="150" height="78" viewBox="0 0 150 78"><title>empty-inbox</title><g style="isolation:isolate"><g id="empty"><path d="M0,35.71C0,17.34,16.34,2.46,36.5,2.46S73,17.34,73,35.71,56.66,69,36.5,69A39.4,39.4,0,0,1,21.71,66.1l-6.84,3.54c-.83.42-1.36,0-1.21-.9l1.06-6.37C5.79,56.32,0,46.63,0,35.71Z" fill="#c5c3c6"/><path d="M108.33,0C131.35,0,150,17.46,150,39a37.67,37.67,0,0,1-12.18,27.55l2.26,8c.29,1-.29,1.59-1.31,1.19l-8.84-3.43A43.62,43.62,0,0,1,108.33,78c-23,0-41.67-17.46-41.67-39S85.32,0,108.33,0Z" fill="#99d4ee" style="mix-blend-mode:multiply"/></g></g></svg>