<svg xmlns="http://www.w3.org/2000/svg" width="150" height="85" viewBox="0 0 150 85"><title>matches</title><g id="Isolation_Mode" data-name="Isolation Mode"><ellipse cx="42.75" cy="42.5" rx="42.75" ry="42.5" fill="#80c9ea"/><ellipse cx="107.25" cy="42.5" rx="42.75" ry="42.5" fill="#b6b4b7"/><path d="M75,14.61a42.26,42.26,0,0,0,0,55.78,42.26,42.26,0,0,0,0-55.78Z" fill="#95a0b7"/><path d="M85.51,42.5A42.18,42.18,0,0,0,75,14.61,42.18,42.18,0,0,0,64.49,42.5h21Z" fill="#a5afbf"/><path d="M75,14.65A42.77,42.77,0,0,0,0,42.5H64.49A42.15,42.15,0,0,1,75,14.65Z" fill="#99d4ee"/><path d="M107.25,0A42.72,42.72,0,0,0,75,14.65,42.15,42.15,0,0,1,85.51,42.5H150A42.63,42.63,0,0,0,107.25,0Z" fill="#c5c3c6"/></g></svg>