<svg id="Layer_1" data-name="Layer 1" xmlns="http://www.w3.org/2000/svg" width="110" height="89" viewBox="0 0 110 89"><title>empty-reviews</title><g id="empty"><path d="M106.86,0H3.14A3.14,3.14,0,0,0,0,3.14V77.4a3.14,3.14,0,0,0,3.14,3.14H45.5a1.47,1.47,0,0,1,1,.43l7.7,7.72a1.07,1.07,0,0,0,1.51,0L63.46,81a1.47,1.47,0,0,1,1-.43h42.36a3.14,3.14,0,0,0,3.18-3.1s0,0,0-.07V3.14A3.14,3.14,0,0,0,106.86,0Z" fill="#99d4ee"/><ellipse cx="40.81" cy="40.27" rx="3.1" ry="3.11" fill="#f5f5f5"/><ellipse cx="55" cy="40.27" rx="3.1" ry="3.11" fill="#f5f5f5"/><ellipse cx="69.19" cy="40.27" rx="3.1" ry="3.11" fill="#f5f5f5"/></g></svg>