<svg xmlns="http://www.w3.org/2000/svg" width="104.71" height="86" viewBox="0 0 104.71 86"><title>Untitled-4</title><g id="Isolation_Mode" data-name="Isolation Mode"><path d="M92.06,0H12.65A12.67,12.67,0,0,0,0,12.65V56.72A12.67,12.67,0,0,0,12.65,69.37h10v14a2.69,2.69,0,0,0,1.52,2.41,2.6,2.6,0,0,0,1.16.26A2.69,2.69,0,0,0,27,85.41l19.84-16H92.06a12.66,12.66,0,0,0,12.65-12.65V12.65A12.66,12.66,0,0,0,92.06,0ZM25.34,64H12.65a7.31,7.31,0,0,1-7.3-7.31V12.65a7.31,7.31,0,0,1,7.3-7.31H92.06a7.32,7.32,0,0,1,7.3,7.31V56.72A7.32,7.32,0,0,1,92.06,64H45.91a2.69,2.69,0,0,0-1.68.59L28,77.73v-11A2.68,2.68,0,0,0,25.34,64Z" fill="#6c6c6c"/><circle cx="30.39" cy="34.42" r="4.58" fill="#6c6c6c"/><circle cx="52.36" cy="34.42" r="4.58" fill="#6c6c6c"/><circle cx="74.32" cy="34.42" r="4.58" fill="#6c6c6c"/></g></svg>