<svg xmlns="http://www.w3.org/2000/svg" width="20" height="20" viewBox="0 0 20 20"><title>deal flow icons</title><path d="M13.64,15.45a4.17,4.17,0,0,1-1.93-.6,14.51,14.51,0,0,1-3.44-2.75A14.5,14.5,0,0,1,5.71,8.52c-0.83-1.75-.47-2.62,0-3s1.33-.73,3,0.19a14.51,14.51,0,0,1,3.44,2.75A14.5,14.5,0,0,1,14.72,12c0.83,1.75.47,2.62,0,3A1.55,1.55,0,0,1,13.64,15.45ZM6.81,6.56l-0.12,0c-0.12.29,0.43,2.11,2.67,4.48s4,3,4.37,2.87c0.12-.29-0.43-2.11-2.67-4.48C9,7.29,7.34,6.56,6.81,6.56Z" fill="#0094d5"/><path d="M1.63,20a0.68,0.68,0,0,1-.58-0.22c-0.4-.4-0.86-0.86,4.45-14A0.75,0.75,0,1,1,6.9,6.3C5,11.08,3,16.37,2.45,18.37c1.94-.58,7-2.6,11.49-4.56a0.75,0.75,0,1,1,.6,1.38C5.32,19.17,2.59,20,1.63,20Z" fill="#0094d5"/><path d="M13.69,8a0.5,0.5,0,0,1-.39-0.82,1.56,1.56,0,0,1,1.55-.41,0.71,0.71,0,0,0,.65-0.06A0.71,0.71,0,0,0,15.44,6a1.56,1.56,0,0,1,.11-1.6A1.56,1.56,0,0,1,17.11,4,0.72,0.72,0,0,0,17.77,4,0.71,0.71,0,0,0,17.7,3.3a1.56,1.56,0,0,1,.11-1.6,0.5,0.5,0,1,1,.77.64,0.71,0.71,0,0,0,.06.66,1.56,1.56,0,0,1-.11,1.6A1.56,1.56,0,0,1,17,5a0.71,0.71,0,0,0-.66.06,0.71,0.71,0,0,0,.07.65,1.56,1.56,0,0,1-.11,1.6,1.55,1.55,0,0,1-1.55.41,0.71,0.71,0,0,0-.65.06A0.5,0.5,0,0,1,13.69,8Z" fill="#0094d5"/><path d="M2.75,8.2a0.5,0.5,0,0,1-.49-0.38,1.57,1.57,0,0,1,.37-1.36,0.61,0.61,0,0,0,.21-0.55,0.61,0.61,0,0,0-.43-0.4,1.57,1.57,0,0,1-.94-1.05A1.57,1.57,0,0,1,1.83,3.1,0.62,0.62,0,0,0,2,2.55a0.62,0.62,0,0,0-.43-0.4A1.57,1.57,0,0,1,.66,1.09a0.5,0.5,0,0,1,1-.23,0.62,0.62,0,0,0,.43.4A1.57,1.57,0,0,1,3,2.31a1.57,1.57,0,0,1-.37,1.37,0.62,0.62,0,0,0-.21.55,0.61,0.61,0,0,0,.43.4,1.57,1.57,0,0,1,.94,1.05A1.57,1.57,0,0,1,3.45,7a0.61,0.61,0,0,0-.21.55,0.5,0.5,0,0,1-.37.6H2.75Z" fill="#0094d5"/><path d="M9,9.41a0.5,0.5,0,0,1-.46-0.69C9,7.58,10,4.3,9,2.81A2.12,2.12,0,0,0,7.1,2a0.5,0.5,0,1,1,0-1A3.07,3.07,0,0,1,9.85,2.26c1.49,2.25-.34,6.67-0.42,6.85A0.5,0.5,0,0,1,9,9.41Z" fill="#0094d5"/><path d="M11.58,12.24a0.5,0.5,0,0,1-.31-0.9c0.17-.13,4.18-3.18,8-1.57a0.5,0.5,0,1,1-.39.92c-3.23-1.37-6.92,1.42-7,1.45A0.5,0.5,0,0,1,11.58,12.24Z" fill="#0094d5"/><path d="M16.89,13.08a0.5,0.5,0,0,0,0-1,0.5,0.5,0,0,0,0,1h0Z" fill="#0094d5"/><path d="M19.38,14.85a0.5,0.5,0,0,0,0-1,0.5,0.5,0,0,0,0,1h0Z" fill="#0094d5"/><path d="M16.89,17.8a0.5,0.5,0,0,0,0-1,0.5,0.5,0,0,0,0,1h0Z" fill="#0094d5"/><path d="M12,18.62a0.5,0.5,0,0,0,0-1,0.5,0.5,0,0,0,0,1h0Z" fill="#0094d5"/><path d="M1.55,10.76a0.5,0.5,0,0,0,0-1,0.5,0.5,0,0,0,0,1h0Z" fill="#0094d5"/><path d="M6.26,13.15a0.5,0.5,0,0,0,0-1,0.5,0.5,0,0,0,0,1h0Z" fill="#0094d5"/><path d="M12,5.66a0.5,0.5,0,0,0,0-1,0.5,0.5,0,0,0,0,1h0Z" fill="#0094d5"/><path d="M14.53,3a0.5,0.5,0,0,0,0-1,0.5,0.5,0,0,0,0,1h0Z" fill="#0094d5"/><path d="M5,3.81a0.5,0.5,0,0,0,0-1,0.5,0.5,0,0,0,0,1H5Z" fill="#0094d5"/><path d="M19.08,7.77a0.5,0.5,0,0,0,0-1,0.5,0.5,0,0,0,0,1h0Z" fill="#0094d5"/></svg>