<svg xmlns="http://www.w3.org/2000/svg" width="20" height="20" viewBox="0 0 20 20"><title>deal flow icons</title><path d="M3.88,8.3a6.467,6.467,0,0,1,.564-0.444,6.167,6.167,0,0,1,.624-0.4,6.827,6.827,0,0,1,.708-0.336l0.708-.264a7.451,7.451,0,0,1,.732-0.2l0.756-.144,0.756-.084h2.208V8.566l5.519-4.283L10.935,0V2.148l-0.252.06H10.467l-0.432.108-0.444.12L8.7,2.723c-0.3.108-.6,0.216-0.9,0.348s-0.6.264-.9,0.408-0.588.312-.876,0.48a9.187,9.187,0,0,0-.84.552c-0.276.2-.528,0.408-0.78,0.612a9.226,9.226,0,0,0-.684.684,8.1,8.1,0,0,0-.6.732,8.206,8.206,0,0,0-.492.756,7.942,7.942,0,0,0-.384.756,6.887,6.887,0,0,0-.288.744c-0.072.24-.144,0.48-0.192,0.708a6.335,6.335,0,0,0-.12.66v2.292h0V12.046l0.2-.24a1.465,1.465,0,0,1,.12-0.4c0.048-.144.1-0.3,0.156-0.456s0.132-.324.216-0.5a5.759,5.759,0,0,1,.276-0.528c0.108-.18.216-0.36,0.348-0.54a5.723,5.723,0,0,1,.408-0.588A6.383,6.383,0,0,1,3.88,8.3Z" style="fill:#026695"/><path d="M18.35,8.278V7.522h0V7.93L18.1,8.206a1.465,1.465,0,0,1-.12.4c-0.048.144-.1,0.3-0.156,0.456s-0.132.336-.216,0.5a5.591,5.591,0,0,1-.276.528c-0.108.18-.216,0.36-0.348,0.54a5.747,5.747,0,0,1-.42.528,6.563,6.563,0,0,1-1.056.948,6.227,6.227,0,0,1-.624.4,6.91,6.91,0,0,1-.672.324l-0.708.264a7.462,7.462,0,0,1-.732.2l-0.756.144-0.756.084H9.015V11.434L3.5,15.717,9.015,20V17.864H9.447l0.432-.108,0.444-.12,0.888-.288c0.3-.108.6-0.216,0.9-0.348s0.6-.264.9-0.408,0.588-.312.876-0.48a7.636,7.636,0,0,0,.828-0.552c0.264-.2.528-0.408,0.78-0.612a9.106,9.106,0,0,0,.732-0.744,8.05,8.05,0,0,0,.6-0.732,8.206,8.206,0,0,0,.492-0.756,7.894,7.894,0,0,0,.384-0.756,6.85,6.85,0,0,0,.288-0.744c0.072-.24.144-0.48,0.192-0.708a6.239,6.239,0,0,0,.12-0.66v-1.1C18.3,8.59,18.362,8.41,18.35,8.278Z" style="fill:#026695"/></svg>