<svg xmlns="http://www.w3.org/2000/svg" width="20" height="20" viewBox="0 0 20 20"><title>deal flow icons</title><path d="M15.72,19.55a0.75,0.75,0,0,1-.35-0.09L10,16.64,4.63,19.46a0.75,0.75,0,0,1-1.09-.79l1-6L0.23,8.46A0.75,0.75,0,0,1,.64,7.18l6-.87L9.33,0.87a0.78,0.78,0,0,1,1.34,0l2.68,5.44,6,0.87a0.75,0.75,0,0,1,.42,1.28l-4.34,4.23,1,6A0.75,0.75,0,0,1,15.72,19.55ZM10,15a0.75,0.75,0,0,1,.35.09l4.37,2.3-0.83-4.87a0.75,0.75,0,0,1,.22-0.66l3.54-3.45-4.89-.71a0.75,0.75,0,0,1-.56-0.41L10,2.9,7.81,7.33a0.75,0.75,0,0,1-.56.41l-4.89.71L5.9,11.89a0.75,0.75,0,0,1,.22.66L5.28,17.43l4.37-2.3A0.75,0.75,0,0,1,10,15Z" fill="#ffcd66"/></svg>