<svg xmlns="http://www.w3.org/2000/svg" width="20" height="20" viewBox="0 0 20 20"><title>deal flow icons</title><path d="M10,20A10,10,0,1,1,20,10,10,10,0,0,1,10,20ZM10,1.5A8.5,8.5,0,1,0,18.5,10,8.51,8.51,0,0,0,10,1.5Z" fill="#ff634b"/><path d="M16.54,17.29A0.75,0.75,0,0,1,16,17.07L2.93,4A0.75,0.75,0,0,1,4,2.93L17.07,16A0.75,0.75,0,0,1,16.54,17.29Z" fill="#ff634b"/><path d="M3.46,17.29A0.75,0.75,0,0,1,2.93,16L16,2.93A0.75,0.75,0,1,1,17.07,4L4,17.07A0.75,0.75,0,0,1,3.46,17.29Z" fill="#ff634b"/></svg>